<?xml version="1.0" encoding="utf-8"?><svg xmlns="http://www.w3.org/2000/svg" xmlns:xlink="http://www.w3.org/1999/xlink"><symbol viewBox="0 0 512.016 512.016" id="best" xmlns="http://www.w3.org/2000/svg"><path d="M480.516 451.667l-75.202-130.253a20.077 20.077 0 0110.656-6.485c11.846-2.791 21.669-10.681 26.949-21.646 5.281-10.965 5.324-23.564.121-34.565a20.072 20.072 0 015.535-24.251c9.462-7.655 14.889-19.025 14.889-31.195s-5.427-23.541-14.889-31.195a20.072 20.072 0 01-5.535-24.251c5.204-11.002 5.16-23.601-.121-34.566-5.28-10.965-15.103-18.855-26.95-21.646a20.073 20.073 0 01-15.509-19.448c-.084-12.17-5.591-23.502-15.106-31.09s-21.79-10.435-33.672-7.809a20.074 20.074 0 01-22.412-10.793c-5.357-10.928-15.234-18.749-27.1-21.457-11.867-2.709-24.159.053-33.727 7.574a20.07 20.07 0 01-24.874 0c-9.568-7.521-21.86-10.281-33.726-7.574-11.866 2.708-21.743 10.529-27.1 21.457a20.072 20.072 0 01-22.411 10.793c-11.884-2.624-24.158.221-33.672 7.809-9.515 7.588-15.021 18.92-15.106 31.09a20.074 20.074 0 01-15.51 19.448c-11.846 2.791-21.669 10.681-26.949 21.646-5.281 10.965-5.324 23.564-.121 34.565a20.072 20.072 0 01-5.535 24.251c-9.462 7.655-14.889 19.025-14.889 31.195s5.427 23.541 14.889 31.195a20.072 20.072 0 015.535 24.251c-5.204 11.002-5.16 23.601.121 34.566 5.28 10.965 15.103 18.855 26.95 21.646a20.07 20.07 0 0110.656 6.485L31.5 451.667a10.001 10.001 0 0011.278 14.651l52.377-14.21 13.883 52.465a10 10 0 0018.328 2.442l64.168-111.141a40 40 0 0018.311 9.653c11.864 2.706 24.158-.053 33.727-7.574a20.07 20.07 0 0124.874 0c7.16 5.628 15.844 8.591 24.735 8.591 2.99 0 6.005-.335 8.991-1.017a39.995 39.995 0 0018.311-9.653l64.168 111.141a10 10 0 0018.328-2.442l13.883-52.465 52.377 14.21a9.997 9.997 0 0011.277-14.651zM122.17 476.015l-10.254-38.75a10.002 10.002 0 00-12.285-7.093l-38.686 10.495 53.254-92.238a40.002 40.002 0 0012.463 17.039c9.515 7.588 21.79 10.435 33.672 7.809a20.066 20.066 0 0118.221 5.079zm175.551-89.986a20.043 20.043 0 01-16.915-3.798c-7.301-5.74-16.048-8.609-24.798-8.609-8.748 0-17.499 2.87-24.798 8.609a20.033 20.033 0 01-16.915 3.798 20.038 20.038 0 01-13.592-10.762 40.022 40.022 0 00-44.684-21.519c-5.961 1.317-12.116-.111-16.888-3.917s-7.534-9.489-7.577-15.593a40.02 40.02 0 00-30.922-38.775 20.04 20.04 0 01-13.517-10.857 20.04 20.04 0 01-.06-17.337 40.021 40.021 0 00-11.037-48.351c-4.746-3.839-7.467-9.542-7.467-15.646s2.722-11.807 7.468-15.646a40.022 40.022 0 0011.036-48.352 20.035 20.035 0 01.061-17.336 20.037 20.037 0 0113.516-10.857 40.02 40.02 0 0030.922-38.775 20.036 20.036 0 017.577-15.593 20.032 20.032 0 0116.889-3.917 40.026 40.026 0 0044.683-21.519 20.038 20.038 0 0113.592-10.762 20.04 20.04 0 0116.915 3.798 40.019 40.019 0 0049.596 0 20.042 20.042 0 0116.915-3.798 20.038 20.038 0 0113.592 10.762 40.025 40.025 0 0044.684 21.519c5.959-1.319 12.116.111 16.888 3.917s7.534 9.489 7.577 15.593a40.02 40.02 0 0030.922 38.775 20.04 20.04 0 0113.517 10.857 20.04 20.04 0 01.06 17.337 40.021 40.021 0 0011.037 48.351c4.746 3.839 7.467 9.542 7.467 15.646s-2.722 11.807-7.468 15.646a40.022 40.022 0 00-11.036 48.352 20.035 20.035 0 01-.061 17.336 20.037 20.037 0 01-13.516 10.857 40.02 40.02 0 00-30.922 38.775 20.036 20.036 0 01-7.577 15.593 20.04 20.04 0 01-16.889 3.917 40.02 40.02 0 00-44.683 21.519 20.04 20.04 0 01-13.592 10.762zm114.664 44.143a10.002 10.002 0 00-12.285 7.093l-10.254 38.75-56.384-97.659a20.058 20.058 0 0118.22-5.079c11.885 2.625 24.157-.221 33.672-7.809a39.996 39.996 0 0012.463-17.039l53.254 92.238z"/><path d="M303.586 278.895a10 10 0 009.52-13.062l-15.763-49.008 41.569-30.543a10 10 0 00-5.92-18.058h-51.44l-16.041-48.875a10 10 0 00-19.002 0l-16.041 48.875h-51.44a10 10 0 00-5.92 18.058l41.569 30.543-15.763 49.008a10 10 0 0015.374 11.169l41.724-30.126 41.724 30.126a9.965 9.965 0 005.85 1.893zm-41.724-52.46c-1.748-1.262-3.801-1.893-5.854-1.893s-4.106.631-5.854 1.893l-22.874 16.516 8.639-26.859a10 10 0 00-3.599-11.121l-22.795-16.749h28.184a10 10 0 009.501-6.882l8.798-26.807 8.798 26.807a10 10 0 009.501 6.882h28.184l-22.795 16.749a10 10 0 00-3.599 11.121l8.639 26.859z"/><path d="M396.008 203.272c0-77.196-62.804-140-140-140s-140 62.804-140 140c0 58.727 37.077 111.632 92.262 131.647 5.191 1.882 10.927-.799 12.811-5.991 1.883-5.192-.799-10.927-5.991-12.811-47.301-17.155-79.081-62.504-79.081-112.845 0-66.168 53.832-120 120-120s120 53.832 120 120c0 50.344-31.783 95.694-79.087 112.848-5.192 1.883-7.875 7.618-5.992 12.81a10.005 10.005 0 009.401 6.594 9.99 9.99 0 003.409-.602c55.188-20.013 92.268-72.919 92.268-131.65z"/><path d="M256.008 323.27c-2.63 0-5.21 1.07-7.07 2.93s-2.93 4.44-2.93 7.07 1.07 5.21 2.93 7.07 4.44 2.93 7.07 2.93 5.21-1.07 7.07-2.93 2.93-4.44 2.93-7.07-1.07-5.21-2.93-7.07-4.44-2.93-7.07-2.93z"/></symbol><symbol viewBox="0 0 512.006 512.006" id="call" xmlns="http://www.w3.org/2000/svg"><path d="M502.05 407.127l-56.761-37.844-50.459-33.633c-9.738-6.479-22.825-4.355-30.014 4.873l-31.223 40.139c-6.707 8.71-18.772 11.213-28.39 5.888-21.186-11.785-46.239-22.881-101.517-78.23-55.278-55.349-66.445-80.331-78.23-101.517-5.325-9.618-2.822-21.683 5.888-28.389l40.139-31.223c9.227-7.188 11.352-20.275 4.873-30.014l-32.6-48.905-38.877-58.316C98.262.03 85.016-2.95 74.786 3.185L29.95 30.083A54.779 54.779 0 005.074 62.277C-7.187 106.98-9.659 205.593 148.381 363.633s256.644 155.56 301.347 143.298a54.771 54.771 0 0032.194-24.876l26.898-44.835c6.136-10.231 3.156-23.476-6.77-30.093zM291.309 79.447c82.842.092 149.977 67.226 150.069 150.069a8.828 8.828 0 0017.656 0c-.102-92.589-75.135-167.622-167.724-167.724a8.828 8.828 0 00-8.828 8.828 8.826 8.826 0 008.827 8.827z"/><path d="M291.309 132.412c53.603.063 97.04 43.501 97.103 97.103a8.828 8.828 0 0017.656 0c-.073-63.349-51.409-114.686-114.759-114.759a8.828 8.828 0 000 17.656z"/><path d="M291.309 185.378c24.365.029 44.109 19.773 44.138 44.138a8.828 8.828 0 0017.656 0c-.039-34.111-27.682-61.754-61.793-61.793a8.828 8.828 0 00-8.828 8.828 8.826 8.826 0 008.827 8.827z"/></symbol><symbol viewBox="-1 0 420 420" id="cart" xmlns="http://www.w3.org/2000/svg"><path d="M152.172 327.883c-25.438.004-46.059 20.625-46.055 46.062 0 25.438 20.621 46.055 46.059 46.055s46.058-20.621 46.054-46.059c-.027-25.425-20.632-46.03-46.058-46.058zm181.278 0c-25.438 0-46.06 20.625-46.06 46.058 0 25.438 20.622 46.059 46.06 46.059s46.058-20.621 46.058-46.059c-.031-25.425-20.633-46.027-46.059-46.058zM408.266 81.68H94.699l-6.8-40.047C83.866 17.563 63.011-.051 38.604 0H10C4.477 0 0 4.477 0 10s4.477 10 10 10h28.605c14.645-.031 27.16 10.54 29.579 24.98l36.207 213.313c4.035 24.074 24.894 41.687 49.3 41.633H366.86c5.524 0 10-4.477 10-10 0-5.524-4.476-10-10-10H153.688c-14.641.031-27.157-10.535-29.575-24.98l-3.64-21.446h209.02c26.093.059 49.214-16.805 57.132-41.664l31.16-97.102a10 10 0 00-9.52-13.054zm0 0"/></symbol><symbol viewBox="0 0 947.3 947.3" id="compare" xmlns="http://www.w3.org/2000/svg"><path d="M515.1 649.9c0 57.701 22.5 112 63.3 152.801C619.2 843.5 673.5 866 731.2 866c57.699 0 112-22.5 152.8-63.299 40.899-40.801 63.3-95 63.3-152.801 0-34.9-8.5-69.5-24.6-100.199L775.399 247.2h24.7c13.8 0 25-11.2 25-25v-41.7c0-13.8-11.2-25-25-25H612c-4.601-41.4-66.3-74.2-141.8-74.2S333 114.1 328.399 155.5H140.3c-13.8 0-25 11.2-25 25v41.7c0 13.8 11.2 25 25 25h31.6L24.6 549.7C8.5 580.4 0 615.101 0 649.9c0 57.701 22.5 112 63.3 152.801C104.1 843.5 158.4 866 216.1 866s112-22.5 152.8-63.299c40.9-40.801 63.4-95 63.4-152.801 0-34.9-8.5-69.5-24.6-100.199L260.3 247.2h426.8L539.7 549.701c-16.1 30.699-24.6 65.4-24.6 100.199zm-161.201-73.5l.4.9c11.9 22.6 17.9 47 17.9 72.699H60c0-25.699 6-50.1 17.9-72.699l.2-.4 138-283.2zm239.101.9l.2-.4 138-283.2L869 576.5l.399.9c11.9 22.6 17.9 47 17.9 72.701H575.1c0-25.801 6-50.301 17.9-72.801z"/></symbol><symbol viewBox="0 0 426.4 426.4" id="credit-card" xmlns="http://www.w3.org/2000/svg"><path d="M370.2 264.4c-12.2-8.3-28.2-8.3-40.5 0-6-4.1-13-6.2-20.2-6.2-20 0-36.1 16.2-36.1 36.1 0 19.9 16.1 36.2 36.1 36.2 7.2 0 14.2-2.1 20.2-6.2 16.5 11.2 39 6.8 50.2-9.7s6.8-39-9.7-50.2zm-8.1 40.4c-5.7 6.8-15.8 7.7-22.6 2-.8-.6-1.4-1.3-2.1-2.1-1.9-2.3-4.8-3.6-7.7-3.5-3 0-5.8 1.3-7.7 3.6-3 3.7-7.6 5.9-12.4 5.8-8.9 0-16.2-7.2-16.2-16.1-.1-9 7.1-16.2 16.1-16.2 4.8 0 9.4 2.2 12.4 5.9 3.5 4.3 9.8 5 14.1 1.5.5-.4 1-.9 1.5-1.5 5.7-6.8 15.8-7.7 22.6-2s7.7 15.8 2 22.6z"/><path d="M426 179.6c0-.9.4-1.9.4-2.9s-.4-1.9-.4-2.8v-21.4c0-23.5-19.3-42.3-42.8-42.3H371V98.1c0-23.5-18.7-42.9-42.2-42.9H42.4C18.9 55.2 0 74.6 0 98.1v175.8c-.1 23.3 18.8 42.2 42.1 42.3H54v12.1c.1 23.6 19.1 42.8 42.7 42.9h286.5c23.6-.2 42.7-19.3 42.8-42.9V226.5c0-.9.4-1.9.4-2.8s-.4-1.9-.4-2.8v-41.3zM54 152.5v143.7H42.4c-12.2.1-22.3-9.7-22.4-21.9V98.1c0-12.4 9.9-22.9 22.4-22.9h286.5c12.5 0 22.2 10.5 22.2 22.9v12.1H96.7C73.2 110.2 54 129 54 152.5zm352 175.8c-.1 12.6-10.2 22.8-22.8 22.9H96.7c-12.6-.1-22.7-10.3-22.7-22.9v-95.1h332v95.1zm0-115.1H74v-26h332v26zm.1-46H74v-14.7c.1-12.4 10.2-22.4 22.7-22.3h286.6c12.5 0 22.8 9.8 22.8 22.3v14.7z"/></symbol><symbol viewBox="0 0 449.505 449.505" id="delivery-man" xmlns="http://www.w3.org/2000/svg"><path d="M306.079 223.021c-.632-7.999-7.672-14.605-15.694-14.728l-53.093-.814c-3.084-.047-6.21-2.762-6.689-5.809l-11.698-74.37c-.424-2.694-2.936-13.678-16.649-13.678l-66.024 2.875c-8.698.378-15.769 4.607-15.769 16.476 0 0-.278 165.299-.616 171.289l-2.31 40.898c-.309 5.462-2.437 14.303-4.647 19.306l-26.724 60.487c-1.764 3.991-1.735 8.403.08 12.105s5.284 6.428 9.52 7.48l8.897 2.208c1.324.329 2.71.495 4.118.495 7.182 0 14.052-4.168 17.096-10.372l25.403-51.78c2.806-5.719 6.298-15.412 7.786-21.607l14.334-59.711 34.689 53.049c2.86 4.374 5.884 12.767 6.471 17.961l6.706 59.392c.954 8.454 8.654 15.332 17.164 15.332l10.146-.035c4.353-.015 8.311-1.752 11.145-4.893 2.833-3.14 4.158-7.254 3.728-11.585l-7.004-70.612c-.646-6.512-2.985-16.401-5.325-22.513l-31.083-81.187-.192-17.115 72.241-2.674c4.033-.149 7.718-1.876 10.376-4.862 2.658-2.985 3.947-6.845 3.629-10.873l-.012-.135zM238.43 444.503v.002-.002zM157.338 97.927c5.558 0 11.054-.948 16.335-2.819 12.327-4.362 22.216-13.264 27.846-25.066 3.981-8.345 5.483-17.433 4.486-26.398l16.406-1.851c5.717-.645 11.52-5.205 13.498-10.607l5.495-15.007c1.173-3.206.864-6.45-.849-8.902-1.67-2.39-4.484-3.761-7.72-3.761-.375 0-.763.018-1.161.056l-47.438 4.512C176.416 2.933 167.116 0 157.333 0c-5.556 0-11.05.947-16.333 2.816-12.326 4.365-22.215 13.268-27.846 25.07s-6.328 25.089-1.963 37.413c6.911 19.516 25.456 32.628 46.147 32.628z"/><path d="M364.605 174.546l-4.72-67.843c-.561-8.057-7.587-14.611-15.691-14.611l-90.689.158c-4.06.007-7.792 1.618-10.509 4.536-2.716 2.917-4.058 6.754-3.775 10.805l4.72 67.843c.561 8.057 7.587 14.611 15.664 14.611l90.716-.158c4.06-.007 7.792-1.617 10.509-4.535 2.716-2.918 4.057-6.756 3.775-10.806zm-105.001 10.498z"/></symbol><symbol viewBox="0 -28 512 512" id="heart" xmlns="http://www.w3.org/2000/svg"><path d="M471.383 44.578C444.879 15.832 408.512 0 368.973 0c-29.555 0-56.621 9.344-80.45 27.77C276.5 37.07 265.605 48.45 256 61.73c-9.602-13.277-20.5-24.66-32.527-33.96C199.648 9.344 172.582 0 143.027 0c-39.539 0-75.91 15.832-102.414 44.578C14.426 72.988 0 111.801 0 153.871c0 43.3 16.137 82.938 50.781 124.742 30.992 37.395 75.535 75.356 127.117 119.313 17.614 15.012 37.579 32.027 58.309 50.152A30.023 30.023 0 00256 455.516a30.03 30.03 0 0019.785-7.43c20.73-18.129 40.707-35.152 58.328-50.172 51.575-43.95 96.117-81.906 127.11-119.305C495.867 236.81 512 197.172 512 153.867c0-42.066-14.426-80.879-40.617-109.289zm0 0"/></symbol><symbol viewBox="0 0 460.298 460.297" id="home" xmlns="http://www.w3.org/2000/svg"><path d="M230.149 120.939L65.986 256.274c0 .191-.048.472-.144.855-.094.38-.144.656-.144.852v137.041c0 4.948 1.809 9.236 5.426 12.847 3.616 3.613 7.898 5.431 12.847 5.431h109.63V303.664h73.097v109.64h109.629c4.948 0 9.236-1.814 12.847-5.435 3.617-3.607 5.432-7.898 5.432-12.847V257.981c0-.76-.104-1.334-.288-1.707L230.149 120.939z"/><path d="M457.122 225.438L394.6 173.476V56.989c0-2.663-.856-4.853-2.574-6.567-1.704-1.712-3.894-2.568-6.563-2.568h-54.816c-2.666 0-4.855.856-6.57 2.568-1.711 1.714-2.566 3.905-2.566 6.567v55.673l-69.662-58.245c-6.084-4.949-13.318-7.423-21.694-7.423-8.375 0-15.608 2.474-21.698 7.423L3.172 225.438c-1.903 1.52-2.946 3.566-3.14 6.136-.193 2.568.472 4.811 1.997 6.713l17.701 21.128c1.525 1.712 3.521 2.759 5.996 3.142 2.285.192 4.57-.476 6.855-1.998L230.149 95.817l197.57 164.741c1.526 1.328 3.521 1.991 5.996 1.991h.858c2.471-.376 4.463-1.43 5.996-3.138l17.703-21.125c1.522-1.906 2.189-4.145 1.991-6.716-.195-2.563-1.242-4.609-3.141-6.132z"/></symbol><symbol viewBox="0 0 512 512" id="loupe" xmlns="http://www.w3.org/2000/svg"><path d="M310 190c-5.52 0-10 4.48-10 10s4.48 10 10 10 10-4.48 10-10-4.48-10-10-10z"/><path d="M500.281 443.719l-133.48-133.48C388.546 277.485 400 239.555 400 200 400 89.72 310.28 0 200 0S0 89.72 0 200s89.72 200 200 200c39.556 0 77.486-11.455 110.239-33.198l36.895 36.895.016.016 96.568 96.568C451.276 507.838 461.319 512 472 512c10.681 0 20.724-4.162 28.278-11.716C507.837 492.731 512 482.687 512 472s-4.163-20.731-11.719-28.281zm-194.745-97.992l-.002.002C274.667 368.149 238.175 380 200 380c-99.252 0-180-80.748-180-180S100.748 20 200 20s180 80.748 180 180c0 38.175-11.851 74.667-34.272 105.535a180.872 180.872 0 01-40.192 40.192zm20.98 9.066a200.674 200.674 0 0028.277-28.277l28.371 28.371a242.733 242.733 0 01-28.277 28.277l-28.371-28.371zm159.623 131.346c-3.78 3.78-8.801 5.861-14.139 5.861s-10.359-2.081-14.139-5.861l-88.795-88.795a262.775 262.775 0 0028.277-28.277l88.798 88.798A19.846 19.846 0 01492 472a19.856 19.856 0 01-5.861 14.139z"/><path d="M200 40c-88.225 0-160 71.775-160 160s71.775 160 160 160 160-71.775 160-160S288.225 40 200 40zm0 300c-77.196 0-140-62.804-140-140S122.804 60 200 60s140 62.804 140 140-62.804 140-140 140z"/><path d="M312.065 157.073c-8.611-22.412-23.604-41.574-43.36-55.413C248.479 87.49 224.721 80 200 80c-5.522 0-10 4.478-10 10s4.478 10 10 10c41.099 0 78.631 25.818 93.396 64.247a10.003 10.003 0 009.337 6.416 9.978 9.978 0 003.584-.668c5.155-1.981 7.729-7.766 5.748-12.922z"/></symbol><symbol viewBox="0 0 490.667 490.667" id="new" xmlns="http://www.w3.org/2000/svg"><path d="M462.805 209.045c-7.573-5.568-16.981-12.523-18.219-17.131-1.344-5.035 3.456-16.128 7.339-25.024 6.635-15.275 13.504-31.083 5.888-44.267-7.701-13.355-25.003-15.296-41.707-17.173-9.536-1.067-21.397-2.389-24.939-5.952-3.563-3.541-4.885-15.403-5.952-24.939-1.877-16.704-3.819-33.984-17.173-41.707-11.605-6.741-28.8-.853-44.267 5.888-8.555 3.712-17.472 7.253-25.045 7.339-4.608-1.216-11.541-10.645-17.131-18.219C271.979 14.805 261.077 0 245.333 0c-15.723 0-26.645 14.805-36.267 27.84-5.589 7.573-12.523 17.003-19.051 18.453-5.739 0-14.571-3.84-23.125-7.552-15.509-6.741-32.725-12.565-44.245-5.888-13.376 7.723-15.317 25.003-17.195 41.707-1.045 9.536-2.389 21.376-5.931 24.939-3.563 3.563-15.424 4.885-24.939 5.952-16.725 1.877-34.027 3.84-41.728 17.173-7.616 13.163-.747 28.971 5.888 44.267 3.883 8.896 8.704 19.989 7.36 25.024-1.237 4.608-10.667 11.563-18.219 17.131C14.805 218.667 0 229.589 0 245.333S14.805 272 27.861 281.621c7.573 5.568 16.981 12.523 18.219 17.131 1.344 5.035-3.456 16.128-7.339 25.024-6.635 15.275-13.504 31.083-5.888 44.267 7.701 13.355 25.003 15.296 41.707 17.173 9.536 1.067 21.397 2.389 24.939 5.952 3.563 3.541 4.885 15.403 5.952 24.939 1.877 16.704 3.819 33.984 17.173 41.707 11.563 6.72 28.757.853 44.267-5.888 8.555-3.712 17.301-7.467 25.045-7.339 4.608 1.216 11.541 10.645 17.131 18.219 9.621 13.056 20.523 27.861 36.267 27.861 15.723 0 26.645-14.805 36.245-27.84 5.589-7.573 12.523-17.003 19.051-18.453 5.76 0 14.592 3.84 23.125 7.552 15.531 6.763 32.725 12.587 44.245 5.909 13.376-7.723 15.317-25.003 17.195-41.728 1.045-9.536 2.389-21.376 5.931-24.939 3.563-3.563 15.424-4.885 24.939-5.952 16.725-1.877 34.027-3.84 41.728-17.173 7.637-13.163.768-28.971-5.888-44.267-3.883-8.896-8.683-19.968-7.339-25.024 1.237-4.608 10.667-11.563 18.219-17.131 13.077-9.621 27.883-20.544 27.883-36.288s-14.807-26.666-27.863-36.288zm-12.629 55.36c-11.328 8.341-23.04 16.96-26.197 28.779-3.264 12.245 2.667 25.877 8.405 39.061 3.669 8.448 9.216 21.205 6.997 25.067-2.325 4.032-16.341 5.611-25.643 6.656-14.165 1.6-28.821 3.243-37.653 12.075-8.832 8.832-10.475 23.488-12.053 37.653-1.045 9.28-2.624 23.317-6.677 25.643-.619.363-1.643.448-2.389.448-5.547 0-14.251-3.797-22.677-7.445-13.227-5.739-27.691-11.456-39.04-8.384-11.84 3.157-20.459 14.869-28.821 26.197-5.632 7.637-14.144 19.179-19.093 19.179s-13.483-11.541-19.093-19.179c-8.341-11.307-16.96-23.019-28.8-26.176-2.325-.619-4.821-.939-7.445-.939-10.176 0-21.077 4.736-31.616 9.344-8.405 3.648-17.109 7.445-22.677 7.445-.747 0-1.771-.085-2.389-.448-4.053-2.347-5.611-16.363-6.656-25.643-1.6-14.165-3.243-28.821-12.075-37.653-8.811-8.832-23.488-10.475-37.653-12.075-9.259-1.045-23.296-2.624-25.621-6.656-2.24-3.84 3.328-16.619 6.997-25.067 5.739-13.184 11.669-26.816 8.405-39.061-3.179-11.819-14.891-20.437-26.197-28.779-7.637-5.653-19.179-14.165-19.179-19.115s11.541-13.461 19.179-19.115c11.328-8.341 23.04-16.96 26.197-28.779 3.264-12.245-2.667-25.877-8.405-39.061-3.648-8.448-9.216-21.205-6.997-25.067 2.347-4.032 16.363-5.611 25.643-6.635 14.165-1.6 28.821-3.243 37.653-12.075 8.832-8.832 10.475-23.488 12.075-37.653 1.024-9.28 2.603-23.296 6.656-25.643.619-.363 1.643-.448 2.389-.448 5.547 0 14.251 3.797 22.656 7.467 13.227 5.739 27.669 11.477 39.04 8.384 11.84-3.157 20.459-14.869 28.821-26.197 5.632-7.637 14.144-19.179 19.093-19.179s13.483 11.541 19.115 19.157c8.341 11.307 16.96 23.019 28.8 26.176 11.264 3.008 25.813-2.624 39.04-8.384 8.405-3.648 17.109-7.445 22.677-7.445.747 0 1.771.085 2.389.448 4.053 2.347 5.611 16.363 6.656 25.643 1.6 14.165 3.243 28.821 12.075 37.653 8.811 8.832 23.488 10.475 37.653 12.075 9.259 1.045 23.296 2.624 25.621 6.656 2.24 3.84-3.328 16.619-6.997 25.067-5.739 13.184-11.669 26.816-8.405 39.061 3.179 11.819 14.891 20.437 26.197 28.779 7.637 5.653 19.179 14.165 19.179 19.115s-11.544 13.463-19.16 19.073z"/><path d="M181.333 192c-5.888 0-10.667 4.779-10.667 10.667V256l-44.8-59.733c-2.752-3.669-7.573-5.184-11.904-3.712a10.668 10.668 0 00-7.296 10.112V288c0 5.888 4.779 10.667 10.667 10.667S128 293.888 128 288v-53.333l44.8 59.733a10.688 10.688 0 008.533 4.267c1.131 0 2.261-.171 3.371-.555A10.668 10.668 0 00192 288v-85.333c0-5.888-4.779-10.667-10.667-10.667zm85.334 85.333h-32v-64h32c5.888 0 10.667-4.779 10.667-10.667S272.555 192 266.667 192H224c-5.888 0-10.667 4.779-10.667 10.667V288c0 5.888 4.779 10.667 10.667 10.667h42.667c5.888 0 10.667-4.779 10.667-10.667s-4.779-10.667-10.667-10.667z"/><path d="M266.667 234.667H224c-5.888 0-10.667 4.779-10.667 10.667S218.112 256 224 256h42.667c5.888 0 10.667-4.779 10.667-10.667s-4.779-10.666-10.667-10.666zm130.56-42.347c-5.76-1.429-11.52 2.027-12.928 7.765l-12.437 49.792-9.749-29.248c-2.901-8.704-17.323-8.704-20.245 0l-9.749 29.248-12.437-49.792c-1.429-5.739-7.317-9.216-12.928-7.765-5.717 1.429-9.173 7.211-7.765 12.928l21.333 85.333c1.152 4.587 5.205 7.893 9.941 8.064 5.355.213 9.045-2.795 10.539-7.275l11.2-33.643 11.2 33.643a10.687 10.687 0 0010.133 7.296c.128 0 .277 0 .384-.021a10.645 10.645 0 009.941-8.064l21.333-85.333a10.644 10.644 0 00-7.766-12.928z"/></symbol><symbol viewBox="0 0 24 24" id="news" xmlns="http://www.w3.org/2000/svg"><path d="M20.5 24H3.75A3.754 3.754 0 010 20.25V2.75A2.752 2.752 0 012.75 0h12.5A2.752 2.752 0 0118 2.75V3h3.25A2.752 2.752 0 0124 5.75v14.5c0 1.916-1.444 3.5-3.301 3.723A.724.724 0 0120.5 24zM18 4.5v15.75c0 1.241 1.009 2.25 2.25 2.25s2.25-1.009 2.25-2.25V5.75c0-.689-.561-1.25-1.25-1.25zm-15.25-3c-.689 0-1.25.561-1.25 1.25v17.5a2.252 2.252 0 002.25 2.25h13.502a3.73 3.73 0 01-.752-2.25V2.75c0-.689-.561-1.25-1.25-1.25z"/><path d="M8.25 9h-4.5A.75.75 0 013 8.25v-4.5A.75.75 0 013.75 3h4.5a.75.75 0 01.75.75v4.5a.75.75 0 01-.75.75zM4.5 7.5h3v-3h-3zm9.75-2h-2.5a.75.75 0 010-1.5h2.5a.75.75 0 010 1.5zm0 3h-2.5a.75.75 0 010-1.5h2.5a.75.75 0 010 1.5zm0 4H3.75a.75.75 0 010-1.5h10.5a.75.75 0 010 1.5zm0 3.75H3.75a.75.75 0 010-1.5h10.5a.75.75 0 010 1.5zm0 3.75H3.75a.75.75 0 010-1.5h10.5a.75.75 0 010 1.5z"/></symbol><symbol viewBox="0 0 263.285 263.285" id="percent" xmlns="http://www.w3.org/2000/svg"><path d="M193.882 8.561c-7.383-3.756-16.414-.813-20.169 6.573L62.153 234.556c-3.755 7.385-.812 16.414 6.573 20.169a14.94 14.94 0 006.786 1.632c5.466 0 10.735-2.998 13.383-8.205L200.455 28.73c3.755-7.385.812-16.414-6.573-20.169zm-80.104 72.257c0-31.369-25.521-56.89-56.89-56.89C25.521 23.928 0 49.449 0 80.818c0 31.368 25.521 56.889 56.889 56.889 31.369 0 56.889-25.521 56.889-56.889zm-56.889 26.889C42.063 107.707 30 95.644 30 80.818c0-14.827 12.063-26.89 26.889-26.89 14.827 0 26.89 12.062 26.89 26.89-.001 14.826-12.063 26.889-26.89 26.889zm149.507 17.873c-31.369 0-56.89 25.521-56.89 56.889 0 31.368 25.52 56.889 56.89 56.889 31.368 0 56.889-25.52 56.889-56.889 0-31.369-25.52-56.889-56.889-56.889zm0 83.777c-14.827 0-26.89-12.063-26.89-26.889 0-14.826 12.063-26.889 26.89-26.889 14.826 0 26.889 12.063 26.889 26.889 0 14.826-12.062 26.889-26.889 26.889z"/></symbol><symbol viewBox="0 0 512 512" fill="#a6aaab" id="pin" xmlns="http://www.w3.org/2000/svg"><path d="M256 0C150.112 0 64 86.112 64 192c0 133.088 173.312 307.936 180.672 315.328a16.07 16.07 0 0022.656 0C274.688 499.936 448 325.088 448 192 448 86.112 361.888 0 256 0zm0 472.864C217.792 431.968 96 293.664 96 192c0-88.224 71.776-160 160-160s160 71.776 160 160c0 101.568-121.792 239.968-160 280.864z"/><path d="M256 96c-52.928 0-96 43.072-96 96s43.072 96 96 96 96-43.072 96-96-43.072-96-96-96zm0 160c-35.296 0-64-28.704-64-64s28.704-64 64-64 64 28.704 64 64-28.704 64-64 64z"/></symbol><symbol viewBox="0 0 512 512" id="recommend" xmlns="http://www.w3.org/2000/svg"><path d="M482 287c0-24.813-20.187-45-45-45h-66.833c8.28-22.387 13.415-48.978 16.417-69.121a70.494 70.494 0 00-16.327-56.473A70.25 70.25 0 00317 92c-8.284 0-15 6.716-15 15 0 36.237-20.825 90.941-45.128 103.126-27.356 13.713-81.172 28.91-91.891 31.874H15.001c-8.284 0-15 6.716-15 15v210C0 475.284 6.716 482 15 482h45v15c0 8.284 6.716 15 15 15h62c18.321 0 34.108-11.011 41.122-26.758l105.24 26.31c1.19.297 2.412.448 3.638.448h90c24.813 0 45-20.187 45-45a44.773 44.773 0 00-3.164-16.579C437.924 445.211 452 427.718 452 407a44.773 44.773 0 00-3.164-16.579C467.924 385.211 482 367.718 482 347c0-11.515-4.347-22.033-11.486-30 7.139-7.967 11.486-18.485 11.486-30zM59.999 452h-30V272h30v180zm92 15c0 8.271-6.729 15-15 15h-47V272h62v195zM347 332h90c8.271 0 15 6.729 15 15s-6.729 15-15 15h-90c-8.284 0-15 6.716-15 15s6.716 15 15 15h60c8.271 0 15 6.729 15 15s-6.729 15-15 15h-60c-8.284 0-15 6.716-15 15s6.716 15 15 15h30c8.271 0 15 6.729 15 15s-6.729 15-15 15h-88.153L182 455.289V268.376c20.238-5.811 63.165-18.822 88.316-31.431 34.45-17.271 55.545-71.899 60.535-112.494a40.296 40.296 0 0116.684 11.542 40.515 40.515 0 019.378 32.462c-7.105 47.654-16.018 67.215-23.329 81.836A15 15 0 00347 272h90c8.271 0 15 6.729 15 15s-6.729 15-15 15h-90c-8.284 0-15 6.716-15 15s6.716 15 15 15zM332 0c-8.284 0-15 6.716-15 15v32c0 8.284 6.716 15 15 15s15-6.716 15-15V15c0-8.284-6.716-15-15-15zm-84.853 75.934l-21.213-21.213c-5.857-5.858-15.355-5.858-21.213 0-5.858 5.858-5.858 15.355 0 21.213l21.213 21.213c5.857 5.858 15.356 5.858 21.213 0 5.858-5.858 5.858-15.355 0-21.213z"/><path d="M196.999 167h-30c-8.284 0-15 6.716-15 15s6.716 15 15 15h30c8.284 0 15-6.716 15-15s-6.716-15-15-15zM497 167h-30c-8.284 0-15 6.716-15 15s6.716 15 15 15h30c8.284 0 15-6.716 15-15s-6.716-15-15-15zM459.279 54.721c-5.857-5.858-15.355-5.858-21.213 0l-21.213 21.213c-5.858 5.858-5.858 15.355 0 21.213 5.857 5.858 15.356 5.858 21.213 0l21.213-21.213c5.858-5.858 5.858-15.355 0-21.213z"/></symbol><symbol viewBox="0 0 488.027 488.027" id="sale" xmlns="http://www.w3.org/2000/svg"><circle cx="179.163" cy="202.563" r="20.4"/><circle cx="308.763" cy="285.363" r="20.4"/><path d="M476.963 270.963l-7.4-10.1c-8-11-8.2-25.9-.3-37.1l7.2-10.2c11-15.6 5.9-37.3-11-46.4l-11-5.9c-12-6.4-18.6-19.8-16.3-33.3l2.1-12.3c3.2-18.8-10.9-36.2-30-37l-12.5-.5c-13.6-.6-25.4-9.8-29.2-22.9l-3.5-12c-5.3-18.4-25.5-27.9-43.1-20.3l-11.5 4.9c-12.5 5.4-27.1 2.2-36.2-8l-8.3-9.3c-12.7-14.2-35-14.1-47.6.4l-8.2 9.4c-9 10.3-23.5 13.7-36.1 8.5l-11.6-4.8c-17.7-7.3-37.7 2.6-42.8 21l-3.3 12.1c-3.6 13.2-15.2 22.6-28.8 23.3l-12.5.7c-19.1 1.1-32.9 18.7-29.4 37.5l2.3 12.3c2.5 13.4-3.9 26.9-15.8 33.5l-10.9 6.1c-16.7 9.3-21.5 31.1-10.2 46.5l7.4 10.1c8 11 8.2 25.9.3 37.1l-7.2 10.2c-11 15.6-5.9 37.3 11 46.4l11 5.9c12 6.4 18.6 19.8 16.3 33.3l-2.1 12.3c-3.2 18.8 10.9 36.2 30 37l12.5.5c13.6.6 25.4 9.8 29.2 22.9l3.5 12c5.3 18.4 25.5 27.9 43.1 20.3l11.5-4.9c12.5-5.4 27.1-2.2 36.2 8l8.3 9.3c12.8 14.2 35.1 14.1 47.6-.4l8.2-9.4c9-10.3 23.5-13.7 36.1-8.5l11.6 4.8c17.7 7.3 37.7-2.6 42.8-21l3.3-12.1c3.6-13.2 15.2-22.6 28.8-23.3l12.5-.7c19.1-1.1 32.9-18.7 29.4-37.5l-2.3-12.3c-2.5-13.4 3.9-26.9 15.8-33.5l10.9-6.1c16.7-9.2 21.5-31 10.2-46.5zm-347.1-68.4c0-27.2 22-49.2 49.2-49.2s49.2 22 49.2 49.2-22 49.2-49.2 49.2-49.2-22.1-49.2-49.2zm58.7 126.9c-4.2 5.1-11.8 5.8-16.9 1.6-5.1-4.2-5.8-11.8-1.6-16.9l129.1-155.5c4.2-5.1 11.8-5.8 16.9-1.6s5.8 11.8 1.6 16.9zm120.2 5.1c-27.2 0-49.2-22-49.2-49.2s22-49.2 49.2-49.2 49.2 22 49.2 49.2-22 49.2-49.2 49.2z"/></symbol><symbol viewBox="0 0 469.333 469.333" id="truck" xmlns="http://www.w3.org/2000/svg"><path d="M405.333 149.333h-64V64H42.667C19.093 64 0 83.093 0 106.667v234.667h42.667c0 35.307 28.693 64 64 64s64-28.693 64-64h128c0 35.307 28.693 64 64 64s64-28.693 64-64h42.667V234.667l-64.001-85.334zm-298.666 224c-17.707 0-32-14.293-32-32s14.293-32 32-32 32 14.293 32 32-14.294 32-32 32zm256 0c-17.707 0-32-14.293-32-32s14.293-32 32-32 32 14.293 32 32-14.294 32-32 32zm-21.334-138.666v-53.333h53.333l41.92 53.333h-95.253z"/></symbol><symbol viewBox="0 0 438.529 438.529" id="user" xmlns="http://www.w3.org/2000/svg"><path d="M219.265 219.267c30.271 0 56.108-10.71 77.518-32.121 21.412-21.411 32.12-47.248 32.12-77.515 0-30.262-10.708-56.1-32.12-77.516C275.366 10.705 249.528 0 219.265 0S163.16 10.705 141.75 32.115c-21.414 21.416-32.121 47.253-32.121 77.516 0 30.267 10.707 56.104 32.121 77.515 21.416 21.411 47.251 32.121 77.515 32.121z"/><path d="M419.258 335.036c-.668-9.609-2.002-19.985-3.997-31.121-1.999-11.136-4.524-21.457-7.57-30.978-3.046-9.514-7.139-18.794-12.278-27.836-5.137-9.041-11.037-16.748-17.703-23.127-6.666-6.377-14.801-11.465-24.406-15.271-9.617-3.805-20.229-5.711-31.84-5.711-1.711 0-5.709 2.046-11.991 6.139a2716.072 2716.072 0 01-21.266 13.708c-7.898 5.037-18.182 9.609-30.834 13.695-12.658 4.093-25.361 6.14-38.118 6.14-12.752 0-25.456-2.047-38.112-6.14-12.655-4.086-22.936-8.658-30.835-13.695a2784.143 2784.143 0 01-21.267-13.708c-6.283-4.093-10.278-6.139-11.991-6.139-11.61 0-22.222 1.906-31.833 5.711-9.613 3.806-17.749 8.898-24.412 15.271-6.661 6.379-12.562 14.086-17.699 23.127-5.137 9.042-9.229 18.326-12.275 27.836-3.045 9.521-5.568 19.842-7.566 30.978-2 11.136-3.332 21.505-3.999 31.121a427.742 427.742 0 00-.998 29.554c0 22.836 6.949 40.875 20.842 54.104 13.896 13.224 32.36 19.835 55.39 19.835h249.533c23.028 0 41.49-6.611 55.388-19.835 13.901-13.229 20.845-31.265 20.845-54.104-.002-10.088-.334-19.938-1.008-29.554z"/></symbol></svg>