<svg height="560" viewBox="-1 0 420 420" width="560" xmlns="http://www.w3.org/2000/svg"><path d="M152.172 327.883c-25.438.004-46.059 20.625-46.055 46.062 0 25.438 20.621 46.055 46.059 46.055s46.058-20.621 46.054-46.059c-.027-25.425-20.632-46.03-46.058-46.058zm181.278 0c-25.438 0-46.06 20.625-46.06 46.058 0 25.438 20.622 46.059 46.06 46.059s46.058-20.621 46.058-46.059c-.031-25.425-20.633-46.027-46.059-46.058zM408.266 81.68H94.699l-6.8-40.047C83.866 17.563 63.011-.051 38.604 0H10C4.477 0 0 4.477 0 10s4.477 10 10 10h28.605c14.645-.031 27.16 10.54 29.579 24.98l36.207 213.313c4.035 24.074 24.894 41.687 49.3 41.633H366.86c5.524 0 10-4.477 10-10 0-5.524-4.476-10-10-10H153.688c-14.641.031-27.157-10.535-29.575-24.98l-3.64-21.446h209.02c26.093.059 49.214-16.805 57.132-41.664l31.16-97.102a10 10 0 00-9.52-13.054zm0 0"/></svg>