<svg xmlns="http://www.w3.org/2000/svg" viewBox="0 0 426.4 426.4"><path d="M370.2 264.4c-12.2-8.3-28.2-8.3-40.5 0-6-4.1-13-6.2-20.2-6.2-20 0-36.1 16.2-36.1 36.1 0 19.9 16.1 36.2 36.1 36.2 7.2 0 14.2-2.1 20.2-6.2 16.5 11.2 39 6.8 50.2-9.7s6.8-39-9.7-50.2zm-8.1 40.4c-5.7 6.8-15.8 7.7-22.6 2-.8-.6-1.4-1.3-2.1-2.1-1.9-2.3-4.8-3.6-7.7-3.5-3 0-5.8 1.3-7.7 3.6-3 3.7-7.6 5.9-12.4 5.8-8.9 0-16.2-7.2-16.2-16.1-.1-9 7.1-16.2 16.1-16.2 4.8 0 9.4 2.2 12.4 5.9 3.5 4.3 9.8 5 14.1 1.5.5-.4 1-.9 1.5-1.5 5.7-6.8 15.8-7.7 22.6-2s7.7 15.8 2 22.6z"/><path d="M426 179.6c0-.9.4-1.9.4-2.9s-.4-1.9-.4-2.8v-21.4c0-23.5-19.3-42.3-42.8-42.3H371V98.1c0-23.5-18.7-42.9-42.2-42.9H42.4C18.9 55.2 0 74.6 0 98.1v175.8c-.1 23.3 18.8 42.2 42.1 42.3H54v12.1c.1 23.6 19.1 42.8 42.7 42.9h286.5c23.6-.2 42.7-19.3 42.8-42.9V226.5c0-.9.4-1.9.4-2.8s-.4-1.9-.4-2.8v-41.3zM54 152.5v143.7H42.4c-12.2.1-22.3-9.7-22.4-21.9V98.1c0-12.4 9.9-22.9 22.4-22.9h286.5c12.5 0 22.2 10.5 22.2 22.9v12.1H96.7C73.2 110.2 54 129 54 152.5zm352 175.8c-.1 12.6-10.2 22.8-22.8 22.9H96.7c-12.6-.1-22.7-10.3-22.7-22.9v-95.1h332v95.1zm0-115.1H74v-26h332v26zm.1-46H74v-14.7c.1-12.4 10.2-22.4 22.7-22.3h286.6c12.5 0 22.8 9.8 22.8 22.3v14.7z"/></svg>