<svg height="512" viewBox="0 0 24 24" width="512" xmlns="http://www.w3.org/2000/svg"><path d="M20.5 24H3.75A3.754 3.754 0 010 20.25V2.75A2.752 2.752 0 012.75 0h12.5A2.752 2.752 0 0118 2.75V3h3.25A2.752 2.752 0 0124 5.75v14.5c0 1.916-1.444 3.5-3.301 3.723A.724.724 0 0120.5 24zM18 4.5v15.75c0 1.241 1.009 2.25 2.25 2.25s2.25-1.009 2.25-2.25V5.75c0-.689-.561-1.25-1.25-1.25zm-15.25-3c-.689 0-1.25.561-1.25 1.25v17.5a2.252 2.252 0 002.25 2.25h13.502a3.73 3.73 0 01-.752-2.25V2.75c0-.689-.561-1.25-1.25-1.25z"/><path d="M8.25 9h-4.5A.75.75 0 013 8.25v-4.5A.75.75 0 013.75 3h4.5a.75.75 0 01.75.75v4.5a.75.75 0 01-.75.75zM4.5 7.5h3v-3h-3zm9.75-2h-2.5a.75.75 0 010-1.5h2.5a.75.75 0 010 1.5zm0 3h-2.5a.75.75 0 010-1.5h2.5a.75.75 0 010 1.5zm0 4H3.75a.75.75 0 010-1.5h10.5a.75.75 0 010 1.5zm0 3.75H3.75a.75.75 0 010-1.5h10.5a.75.75 0 010 1.5zm0 3.75H3.75a.75.75 0 010-1.5h10.5a.75.75 0 010 1.5z"/></svg>