<svg width="640" height="455" fill="none" xmlns="http://www.w3.org/2000/svg"><path fill="#F8F8F8" d="M0 0h640v455H0z"/><path d="M166 272.125l236.107-43.814m0 0l65.72 134.687m-65.72-134.687v-119.27" stroke="#B6B6B6" stroke-width="5"/><path d="M237.4 306.457l17.85-147.669 25.964-12.981 50.71 157.404-94.524 3.246z" fill="#FBA334"/><ellipse cx="268.676" cy="153.989" rx="15.035" ry="10.953" transform="rotate(-41.587 268.676 153.989)" fill="#F96B00"/><ellipse cx="284.865" cy="306.829" rx="47.465" ry="30.02" fill="#F86A00"/><path d="M396.428 319.439l-17.85-147.668-25.964-12.982-50.71 157.405 94.524 3.245z" fill="#FBA334"/><ellipse rx="15.035" ry="10.953" transform="scale(-1 1) rotate(-41.587 37.278 564.289)" fill="#F96B00"/><ellipse rx="47.465" ry="30.02" transform="matrix(-1 0 0 1 348.963 319.811)" fill="#F86A00"/><path fill-rule="evenodd" clip-rule="evenodd" d="M306.701 333.562c15.226-4.999 25.629-15.062 25.629-26.662 0-4.927-1.877-9.577-5.203-13.679-15.226 4.998-25.629 15.062-25.629 26.662 0 4.927 1.877 9.577 5.203 13.679z" fill="#E71600"/><path d="M327.056 293.221c-7.708-8.519-11.765-9.331-14.605-10.953l-8.925 28.803c3.895-9.087 17.58-16.363 23.53-17.85z" fill="#F03E00"/><path d="M312.451 282.266l6.491-19.067 8.114 30.021c-1.623-2.434-8.925-8.52-14.605-10.954z" fill="#F26900"/><path d="M346.123 185.309l-114.402 98.986m114.402-98.986l120.082 58.418m-120.082-58.418L282.025 49m-50.304 235.295V406m0-121.705l-64.909-130.629M231.721 406l234.484-43.814V243.727M231.721 406l-64.909-134.686V153.666m299.393 90.061l-63.287-134.686L282.025 49m0 0L166.812 153.666" stroke="#111" stroke-width="5" stroke-linejoin="round"/></svg>