<svg width="640" height="455" fill="none" xmlns="http://www.w3.org/2000/svg"><path fill="#F8F8F8" d="M0 0h640v455H0z"/><path d="M335.181 337.355l46.526-279.607 33.426-11.293 90.793 280.962-170.745 9.938z" fill="#FDA93B"/><ellipse cx="398.556" cy="53.581" rx="18.294" ry="13.551" transform="rotate(-34.9 398.556 53.58)" fill="#F96A01"/><ellipse cx="421.909" cy="342.321" rx="87.18" ry="56.463" fill="#FA6C00"/><path d="M130.557 369.426c-21.682-4.698-36.739-48.333-41.557-69.563l28.006-57.367c5.119 18.219 20.778 57.277 42.46 67.756l-28.909 59.174zm0 0c4.795 1.039 10.179 2.111 15.81 3.175m80.404-47.442l-26.651 56.463c-11.024-1.642-33.921-5.275-53.753-9.021m27.554-60.09l-27.554 60.09m20.327-14.016l-7.228 16.403m19.875-14.596l-7.227 16.771m18.068-9.544l-4.968 11.691m1.355-64.54l-15.81 37.04m28.909-35.234l-15.81 37.04m27.555-34.331l-15.81 37.04" stroke="#000" stroke-width="5" stroke-linecap="round" stroke-linejoin="round"/><path d="M103.906 341.42l102.086 17.165" stroke="#000" stroke-width="6" stroke-linecap="round" stroke-linejoin="round"/><path d="M133.719 282.246L237.16 301.67m-18.068-3.613l22.133 63.239m-106.602 9.485v42.912m57.366-57.367l23.037 65.949m295.417-55.56c21.682-4.698 36.739-48.333 41.557-69.563l-28.006-57.367c-5.119 18.219-20.778 57.277-42.46 67.756l28.909 59.174zm0 0c-4.795 1.039-10.179 2.112-15.81 3.175m-80.404-47.442l26.651 56.463c11.024-1.642 33.921-5.275 53.753-9.021m-27.554-60.09l27.554 60.09m-20.327-14.016l7.228 16.404m-19.875-14.597l7.227 16.771m-18.068-9.544l4.968 11.691m-1.355-64.54l15.81 37.04m-28.909-35.234l15.81 37.04m-27.555-34.329l15.81 37.04" stroke="#000" stroke-width="5" stroke-linecap="round" stroke-linejoin="round"/><path d="M537.094 338.709l-102.086 17.165" stroke="#000" stroke-width="6" stroke-linecap="round" stroke-linejoin="round"/><path d="M507.281 279.535L403.84 298.959m18.068-3.613l-22.133 63.239m106.602 9.485v42.913m-57.366-57.368l-23.037 65.95" stroke="#000" stroke-width="5" stroke-linecap="round" stroke-linejoin="round"/><mask id="a" maskUnits="userSpaceOnUse" x="260" y="291" width="114" height="76"><ellipse cx="316.866" cy="329.241" rx="57.819" ry="35.233" transform="rotate(-15.875 316.866 329.241)" fill="#C4C4C4"/></mask><g mask="url(#a)"><path d="M264.714 329.675l15.81 39.298m-5.42-53.753l23.488 60.077m-11.744-68.659l24.844 64.142m-11.744-70.466l26.199 66.852m-13.552-70.918l27.103 67.305m-13.551-69.112l26.65 66.853m-12.196-65.949l25.747 61.432m-11.292-57.819l24.392 54.657" stroke="#000" stroke-width="5" stroke-linecap="round"/></g><path d="M261.253 345.959c5.322 18.716 34.536 26.808 65.251 18.073 30.714-8.735 51.298-30.989 45.975-49.705-1.614-6.336-8.389-16.453-17.423-15.368" stroke="#000" stroke-width="5"/><path d="M326.676 326.503c1.092 3.84-1.812 8.883-7.84 10.597-6.028 1.715-11.151-1.046-12.243-4.886-1.092-3.839 1.811-8.883 7.84-10.597 6.028-1.714 11.151 1.046 12.243 4.886z" fill="#fff" stroke="#000" stroke-width="5"/><path d="M264.714 329.676c-2.108 2.409-5.33 8.763-3.162 16.713" stroke="#000" stroke-width="5"/><path d="M290.913 367.166l-8.582 25.747" stroke="#000" stroke-width="5" stroke-linecap="round" stroke-linejoin="round"/><path d="M264.262 351.809l-6.775 11.744m105.7-19.875l9.937 26.65" stroke="#000" stroke-width="5" stroke-linecap="round"/></svg>