<svg height="947.3" width="947.3" xmlns="http://www.w3.org/2000/svg"><path d="M515.1 649.9c0 57.701 22.5 112 63.3 152.801C619.2 843.5 673.5 866 731.2 866c57.699 0 112-22.5 152.8-63.299 40.899-40.801 63.3-95 63.3-152.801 0-34.9-8.5-69.5-24.6-100.199L775.399 247.2h24.7c13.8 0 25-11.2 25-25v-41.7c0-13.8-11.2-25-25-25H612c-4.601-41.4-66.3-74.2-141.8-74.2S333 114.1 328.399 155.5H140.3c-13.8 0-25 11.2-25 25v41.7c0 13.8 11.2 25 25 25h31.6L24.6 549.7C8.5 580.4 0 615.101 0 649.9c0 57.701 22.5 112 63.3 152.801C104.1 843.5 158.4 866 216.1 866s112-22.5 152.8-63.299c40.9-40.801 63.4-95 63.4-152.801 0-34.9-8.5-69.5-24.6-100.199L260.3 247.2h426.8L539.7 549.701c-16.1 30.699-24.6 65.4-24.6 100.199zm-161.201-73.5l.4.9c11.9 22.6 17.9 47 17.9 72.699H60c0-25.699 6-50.1 17.9-72.699l.2-.4 138-283.2zm239.101.9l.2-.4 138-283.2L869 576.5l.399.9c11.9 22.6 17.9 47 17.9 72.701H575.1c0-25.801 6-50.301 17.9-72.801z"/></svg>