<svg width="23" height="29" fill="none" xmlns="http://www.w3.org/2000/svg"><path d="M22.442 23.944l-3.8-7.114c.385-.192.616-.63.59-1.122l-.282-2.517 1.618-1.806c.36-.383.385-1.04.025-1.505l-1.617-1.86.334-2.545c.051-.547-.308-1.095-.822-1.204l-2.336-.493-1.13-2.216c-.23-.52-.796-.739-1.31-.52h-.025L11.531 2.11 9.425 1.015a.949.949 0 00-.77-.082 1.03 1.03 0 00-.59.52L6.908 3.669l-2.336.438c-.54.11-.899.63-.847 1.231l.282 2.517L2.39 9.661c-.359.383-.385 1.04-.025 1.505l1.617 1.86-.333 2.545c-.052.493.23.958.667 1.15L.491 23.943c-.103.164-.077.383 0 .547.102.164.256.273.436.273h4.108l1.874 3.475c.103.164.257.274.437.274s.359-.11.436-.274l3.671-6.676 3.672 6.758c.103.164.257.274.436.274.18 0 .36-.11.437-.274l1.874-3.557h4.108c.18 0 .36-.11.436-.273a.477.477 0 00.026-.547zM7.372 26.87l-1.593-2.927c-.102-.165-.256-.274-.436-.274H1.8l3.543-6.676 1.463.273 1.13 2.217a.985.985 0 001.31.52h.025l1.053-.52.513.957-3.466 6.43zm1.488-7.85h-.025l-1.13-2.271c-.154-.274-.41-.493-.719-.52l-2.362-.466.334-2.517c.051-.328-.051-.684-.257-.903l-1.592-1.86 1.618-1.806a1.07 1.07 0 00.282-.903l-.282-2.49s0-.027.026-.054l2.336-.438c.282-.055.565-.246.719-.547l1.155-2.217 2.105 1.095a.929.929 0 00.925 0l2.13-1.04h.026l1.13 2.271c.154.274.41.493.693.52l2.336.492-.333 2.518c-.052.328.051.684.256.902l1.618 1.861-1.643 1.806a1.07 1.07 0 00-.283.903l.283 2.517-2.31.41a1.044 1.044 0 00-.72.548l-1.155 2.216-2.105-1.095a.93.93 0 00-.925 0l-2.13 1.067zm8.73 4.65c-.18 0-.36.11-.437.274l-1.592 3.01-3.62-6.676a.45.45 0 00-.102-.191l-.565-1.067.18-.083 2.105 1.095c.154.082.308.11.462.11a1 1 0 00.898-.548l1.156-2.216 1.54-.301 3.518 6.594H17.59z" fill="#fff"/><path d="M16.588 10.537c0-3.01-2.31-5.473-5.135-5.473-2.824 0-5.134 2.463-5.134 5.473s2.31 5.472 5.134 5.472c2.825 0 5.135-2.463 5.135-5.472zm-5.135 4.377c-2.259 0-4.107-1.97-4.107-4.377 0-2.408 1.848-4.378 4.107-4.378 2.26 0 4.108 1.97 4.108 4.378 0 2.407-1.848 4.377-4.108 4.377z" fill="#fff"/></svg>