<svg width="20" height="25" fill="none" xmlns="http://www.w3.org/2000/svg"><path d="M4.953 15.806c0-.408-.283-.652-.783-.652-.204 0-.342.02-.414.04v1.309c.085.019.19.025.336.025.532 0 .86-.269.86-.722zm3.093-.638c-.224 0-.369.02-.454.04v2.899c.085.02.223.02.348.02.908.006 1.5-.493 1.5-1.552.006-.92-.533-1.406-1.394-1.406z" fill="#111"/><path d="M13.79 0H3.924a2.618 2.618 0 00-2.615 2.615v9.668h-.255c-.582 0-1.054.471-1.054 1.053v6.39c0 .582.472 1.054 1.054 1.054h.255v1.171a2.617 2.617 0 002.615 2.615h13.462A2.617 2.617 0 0020 21.95V6.188L13.79 0zM2.764 14.49a8.256 8.256 0 011.354-.092c.618 0 1.059.118 1.355.355.282.223.473.592.473 1.025 0 .434-.145.803-.408 1.052-.342.323-.848.467-1.44.467-.131 0-.25-.006-.341-.02v1.585h-.993V14.49zm14.622 8.475H3.924A1.014 1.014 0 012.91 21.95v-1.17h12.55c.582 0 1.054-.472 1.054-1.054v-6.39c0-.582-.472-1.053-1.054-1.053H2.91V2.615c0-.558.454-1.012 1.013-1.012l9.267-.01V5.02c0 1 .812 1.813 1.813 1.813l3.356-.01.038 15.13c0 .558-.454 1.013-1.012 1.013zm-10.8-4.123V14.49a9.024 9.024 0 011.354-.092c.842 0 1.387.151 1.815.473.46.342.75.887.75 1.67 0 .848-.31 1.434-.737 1.795-.467.388-1.177.572-2.045.572-.52 0-.887-.033-1.137-.066zm7.175-2.577v.815h-1.59v1.782h-1.007v-4.431h2.709v.822H12.17v1.012h1.591z" fill="#111"/><path d="M14.735 3.055l2.293 2.293a2.293 2.293 0 01-2.293-2.293zM.724 11.517h3.057v.764H.724zm0 9.27h3.057v.764H.724z" fill="#fff"/></svg>