<svg width="19" height="29" fill="none" xmlns="http://www.w3.org/2000/svg"><path d="M9.5.887C4.262.887 0 5.428 0 11.01c0 1.838.773 3.814.806 3.898.25.631.742 1.613 1.098 2.188l6.514 10.518c.266.431.66.678 1.082.678.421 0 .816-.247 1.082-.677l6.515-10.519a16.69 16.69 0 001.098-2.188c.032-.083.805-2.06.805-3.898C19 5.428 14.738.887 9.5.887zm7.664 13.56a15.358 15.358 0 01-1 1.995L9.648 26.96c-.128.208-.17.208-.298 0L2.837 16.442a15.32 15.32 0 01-1-1.996c-.01-.024-.72-1.844-.72-3.435 0-4.926 3.761-8.933 8.383-8.933 4.622 0 8.382 4.007 8.382 8.933 0 1.594-.71 3.418-.718 3.436z" fill="#fff"/><path d="M9.5 5.652c-2.773 0-5.03 2.405-5.03 5.36 0 2.955 2.257 5.36 5.03 5.36 2.774 0 5.03-2.405 5.03-5.36 0-2.955-2.256-5.36-5.03-5.36zm0 9.529c-2.156 0-3.912-1.87-3.912-4.169 0-2.299 1.756-4.169 3.912-4.169 2.157 0 3.912 1.87 3.912 4.17 0 2.298-1.755 4.168-3.912 4.168z" fill="#fff"/></svg>