<svg width="31" height="22" fill="none" xmlns="http://www.w3.org/2000/svg"><path d="M7.198 14.795c-1.702 0-3.085 1.475-3.085 3.288 0 1.813 1.383 3.288 3.085 3.288 1.701 0 3.085-1.475 3.085-3.288 0-1.813-1.384-3.288-3.085-3.288zm0 5.48c-1.134 0-2.057-.983-2.057-2.192 0-1.21.923-2.192 2.057-2.192s2.057.983 2.057 2.192-.923 2.192-2.057 2.192zm17.482-5.48c-1.702 0-3.086 1.475-3.086 3.288 0 1.813 1.384 3.288 3.085 3.288 1.702 0 3.085-1.475 3.085-3.288 0-1.813-1.383-3.288-3.085-3.288zm0 5.48c-1.135 0-2.058-.983-2.058-2.192 0-1.21.923-2.192 2.057-2.192 1.135 0 2.057.983 2.057 2.192s-.922 2.192-2.057 2.192z" fill="#B6B6B6"/><path d="M30.768 11.759L26.14 4.087a.507.507 0 00-.432-.251h-5.656c-.285 0-.514.245-.514.548v13.699c0 .303.23.548.514.548h2.057v-1.096h-1.543V4.932h4.861l4.394 7.284v5.319h-2.57v1.096h3.084c.285 0 .515-.245.515-.548v-6.028a.573.573 0 00-.082-.296z" fill="#B6B6B6"/><path d="M22.623 10.959V7.123h4.114V6.027h-4.628c-.284 0-.514.246-.514.548v4.932c0 .303.23.548.514.548h7.713v-1.096h-7.199zM20.053 0H.514C.23 0 0 .245 0 .548v17.535c0 .303.23.548.514.548h4.114v-1.096h-3.6V1.095h18.51v16.44H9.77v1.096h10.284c.284 0 .514-.245.514-.548V.548c0-.303-.23-.548-.514-.548zm10.283 15.344h-2.057v1.096h2.057v-1.096z" fill="#B6B6B6"/></svg>