<svg width="23" height="28" fill="none" xmlns="http://www.w3.org/2000/svg"><path d="M22.02 23.057l-3.8-7.114c.385-.192.616-.63.59-1.122l-.282-2.517 1.617-1.806c.36-.383.385-1.04.026-1.505l-1.618-1.86.334-2.545c.051-.547-.308-1.094-.822-1.204l-2.336-.492-1.13-2.217a.985.985 0 00-1.309-.52h-.026l-2.156 1.068L9.002.128a.949.949 0 00-.77-.082 1.03 1.03 0 00-.59.52L6.486 2.782 4.15 3.22c-.54.11-.899.63-.847 1.231l.282 2.518-1.617 1.805c-.36.383-.385 1.04-.026 1.505l1.617 1.86-.333 2.545c-.052.493.23.958.667 1.15L.068 23.056c-.103.164-.077.383 0 .547.102.164.256.274.436.274h4.108l1.874 3.474c.103.165.257.274.437.274s.36-.11.436-.274l3.672-6.676 3.671 6.759c.103.164.257.273.437.273s.359-.11.436-.273l1.874-3.557h4.108c.18 0 .36-.11.437-.274a.477.477 0 00.025-.547zM6.947 25.984l-1.591-2.927c-.103-.164-.257-.274-.437-.274H1.377l3.543-6.676 1.464.274 1.13 2.216a.985.985 0 001.309.52h.025l1.053-.52.513.958-3.466 6.43zm1.49-7.852h-.026l-1.13-2.271c-.154-.274-.41-.493-.719-.52L4.2 14.876l.334-2.517c.051-.329-.051-.684-.257-.903l-1.591-1.86 1.617-1.807a1.07 1.07 0 00.282-.903l-.282-2.49s0-.027.026-.054l2.336-.438c.282-.055.565-.246.719-.547L8.54 1.14l2.106 1.094a.929.929 0 00.924 0l2.13-1.04h.026l1.13 2.271c.154.274.41.493.693.52l2.337.493-.334 2.517c-.052.328.051.684.257.903l1.617 1.86-1.643 1.806a1.07 1.07 0 00-.283.903l.283 2.517-2.31.41a1.044 1.044 0 00-.72.548l-1.155 2.216-2.105-1.094a.929.929 0 00-.925 0l-2.13 1.067zm8.729 4.651c-.18 0-.36.11-.437.274l-1.591 3.01-3.62-6.677a.447.447 0 00-.103-.191l-.565-1.067.18-.082 2.105 1.094c.154.082.308.11.462.11.36 0 .719-.192.899-.548l1.155-2.216 1.54-.3 3.518 6.593h-3.543z" fill="#B6B6B6"/><path d="M16.165 9.65c0-3.01-2.31-5.472-5.134-5.472-2.825 0-5.135 2.462-5.135 5.472 0 3.01 2.31 5.472 5.135 5.472 2.824 0 5.134-2.462 5.134-5.472zm-5.134 4.378c-2.26 0-4.108-1.97-4.108-4.378 0-2.408 1.848-4.378 4.108-4.378 2.259 0 4.107 1.97 4.107 4.378 0 2.408-1.848 4.378-4.107 4.378z" fill="#B6B6B6"/></svg>