<svg width="19" height="28" fill="none" xmlns="http://www.w3.org/2000/svg"><path d="M9.5 0C4.262 0 0 4.542 0 10.124c0 1.838.773 3.815.806 3.898.25.632.742 1.613 1.098 2.189l6.514 10.517c.266.431.66.679 1.082.679.421 0 .816-.247 1.082-.678l6.515-10.518c.356-.576.848-1.557 1.098-2.189.032-.083.805-2.06.805-3.898C19 4.542 14.738 0 9.5 0zm7.664 13.56c-.223.566-.681 1.48-1 1.995L9.648 26.073c-.128.208-.17.208-.298 0L2.837 15.555a15.32 15.32 0 01-1-1.996c-.01-.024-.72-1.844-.72-3.435 0-4.926 3.761-8.933 8.383-8.933 4.622 0 8.382 4.007 8.382 8.933 0 1.594-.71 3.418-.718 3.436z" fill="#B6B6B6"/><path d="M9.5 4.766c-2.773 0-5.03 2.404-5.03 5.36 0 2.955 2.257 5.36 5.03 5.36 2.774 0 5.03-2.405 5.03-5.36 0-2.956-2.256-5.36-5.03-5.36zm0 9.528c-2.156 0-3.912-1.87-3.912-4.168 0-2.3 1.756-4.17 3.912-4.17 2.157 0 3.912 1.87 3.912 4.17 0 2.298-1.755 4.168-3.912 4.168z" fill="#B6B6B6"/></svg>