<svg width="34" height="25" fill="none" xmlns="http://www.w3.org/2000/svg"><path d="M7.897 17.117c-1.867 0-3.385 1.618-3.385 3.607 0 1.99 1.518 3.607 3.385 3.607 1.866 0 3.384-1.617 3.384-3.607 0-1.99-1.518-3.607-3.384-3.607zm0 6.012c-1.245 0-2.257-1.079-2.257-2.405 0-1.326 1.012-2.404 2.257-2.404 1.244 0 2.256 1.078 2.256 2.404 0 1.326-1.012 2.405-2.256 2.405zm19.179-6.012c-1.867 0-3.385 1.618-3.385 3.607 0 1.99 1.518 3.607 3.385 3.607 1.866 0 3.384-1.617 3.384-3.607 0-1.99-1.518-3.607-3.384-3.607zm0 6.012c-1.245 0-2.257-1.079-2.257-2.405 0-1.326 1.012-2.404 2.257-2.404 1.244 0 2.256 1.078 2.256 2.404 0 1.326-1.012 2.405-2.256 2.405z" fill="#F7F7F7"/><path d="M33.756 13.788L28.68 5.372a.557.557 0 00-.474-.276H22c-.312 0-.564.269-.564.6v15.03c0 .332.252.601.564.601h2.256v-1.202h-1.692V6.298h5.333l4.82 7.992v5.835h-2.82v1.202h3.385c.312 0 .564-.269.564-.6v-6.614a.63.63 0 00-.09-.325z" fill="#F7F7F7"/><path d="M24.82 12.91V8.703h4.513V7.5h-5.076c-.313 0-.565.27-.565.601v5.41c0 .333.253.602.564.602h8.462V12.91h-7.897zM22 .887H.564c-.311 0-.564.269-.564.6v19.238c0 .333.253.601.564.601h4.513v-1.202H1.128V2.089h20.308v18.035H10.718v1.202H22c.312 0 .564-.268.564-.6V1.487c0-.332-.252-.601-.564-.601zm11.282 16.832h-2.257v1.202h2.257V17.72z" fill="#F7F7F7"/></svg>