<svg width="18" height="18" fill="none" xmlns="http://www.w3.org/2000/svg"><path d="M15.364 2.636A8.941 8.941 0 009 0a8.941 8.941 0 00-6.364 2.636A8.941 8.941 0 000 9a8.94 8.94 0 002.636 6.364A8.941 8.941 0 009 18a8.941 8.941 0 006.364-2.636A8.941 8.941 0 0018 9a8.941 8.941 0 00-2.636-6.364zm-.075 11.098a11.223 11.223 0 00-1.686-.942c.258-1.006.411-2.098.45-3.23h2.802a7.833 7.833 0 01-1.566 4.172zM1.145 9.563h2.802c.039 1.13.192 2.223.45 3.23-.584.262-1.148.577-1.686.941a7.832 7.832 0 01-1.566-4.171zm1.566-5.297c.538.364 1.101.68 1.686.942a15.124 15.124 0 00-.45 3.23H1.145a7.832 7.832 0 011.566-4.172zm9.967-1.497a7.6 7.6 0 00-.665-1.045c.951.396 1.81.973 2.53 1.688-.409.268-.833.505-1.271.71a10.1 10.1 0 00-.594-1.353zm-.456 1.772c-1.027.344-2.11.521-3.222.521s-2.196-.177-3.222-.52C6.497 2.492 7.686 1.124 9 1.124c1.315 0 2.503 1.368 3.223 3.416zM5.074 8.437a14.07 14.07 0 01.385-2.816c1.13.374 2.32.566 3.542.566 1.221 0 2.413-.192 3.542-.566.213.868.348 1.82.385 2.816H5.073zm7.854 1.126a14.097 14.097 0 01-.385 2.816A11.241 11.241 0 009 11.813a11.25 11.25 0 00-3.542.566 14.1 14.1 0 01-.385-2.816h7.854zM5.322 2.769c-.224.42-.422.872-.594 1.352a10.084 10.084 0 01-1.271-.71 7.9 7.9 0 012.53-1.687c-.236.31-.46.659-.665 1.045zm-.594 11.11c.172.48.37.933.594 1.352a7.6 7.6 0 00.665 1.045 7.901 7.901 0 01-2.53-1.688 10.1 10.1 0 011.271-.71zm1.05-.42A10.117 10.117 0 019 12.938c1.112 0 2.195.177 3.222.521-.719 2.048-1.908 3.416-3.222 3.416s-2.503-1.368-3.222-3.416zm6.9 1.772c.224-.42.422-.872.594-1.352.438.204.862.44 1.27.71a7.9 7.9 0 01-2.53 1.687c.237-.31.46-.659.666-1.045zm1.375-6.793a15.132 15.132 0 00-.45-3.23 11.215 11.215 0 001.686-.942 7.832 7.832 0 011.566 4.171h-2.802z" fill="#878787"/></svg>